HIERARCHY
ROOT Hips
{
	OFFSET 0.000000 0.000000 0.000000 
	CHANNELS 6 Xposition Yposition Zposition Zrotation Yrotation Xrotation
	JOINT LeftUpLeg
	{
		OFFSET 1.363060 -1.794630 0.839290 
		CHANNELS 3 Zrotation Yrotation Xrotation
		JOINT LeftLeg
		{
			OFFSET 2.448110 -6.726130 0.000000 
			CHANNELS 3 Zrotation Yrotation Xrotation
			JOINT LeftFoot
			{
				OFFSET 2.562200 -7.039590 0.000000 
				CHANNELS 3 Zrotation Yrotation Xrotation
				JOINT LeftToeBase
				{
					OFFSET 0.157640 -0.433110 2.322550 
					CHANNELS 3 Zrotation Yrotation Xrotation
					End Site
					{
						OFFSET 0.000000 0.000000 0.000000 
					}
				}
			}
		}
	}
	JOINT RightUpLeg
	{
		OFFSET -1.305520 -1.794630 0.839290 
		CHANNELS 3 Zrotation Yrotation Xrotation
		JOINT RightLeg
		{
			OFFSET -2.542530 -6.985550 0.000000 
			CHANNELS 3 Zrotation Yrotation Xrotation
			JOINT RightFoot
			{
				OFFSET -2.568260 -7.056230 0.000000 
				CHANNELS 3 Zrotation Yrotation Xrotation
				JOINT RightToeBase
				{
					OFFSET -0.164730 -0.452590 2.363150 
					CHANNELS 3 Zrotation Yrotation Xrotation
					End Site
					{
						OFFSET 0.000000 0.000000 0.000000 
					}
				}
			}
		}
	}
	JOINT Spine
	{
		OFFSET 0.028270 2.035590 -0.193380 
		CHANNELS 3 Zrotation Yrotation Xrotation
		JOINT Spine1
		{
			OFFSET 0.056720 2.048850 -0.042750 
			CHANNELS 3 Zrotation Yrotation Xrotation
			JOINT Neck1
			{
				OFFSET -0.054170 1.746240 0.172020 
				CHANNELS 3 Zrotation Yrotation Xrotation
				JOINT Head
				{
					OFFSET 0.104070 1.761360 -0.123970 
					CHANNELS 3 Zrotation Yrotation Xrotation
					End Site
					{
						OFFSET 0.000000 0.000000 0.000000 
					}
				}
			}
			JOINT LeftArm
			{
				OFFSET 3.362410 1.200890 -0.311210 
				CHANNELS 3 Zrotation Yrotation Xrotation
				JOINT LeftForeArm
				{
					OFFSET 4.983000 -0.000000 -0.000000 
					CHANNELS 3 Zrotation Yrotation Xrotation
					JOINT LeftHand
					{
						OFFSET 3.483560 -0.000000 -0.000000 
						CHANNELS 3 Zrotation Yrotation Xrotation
						JOINT LeftHandIndex1
						{
							OFFSET 0.715260 -0.000000 -0.000000 
							CHANNELS 3 Zrotation Yrotation Xrotation
							End Site
							{
								OFFSET 0.000000 0.000000 0.000000 
							}
						}
					}
				}
			}
			JOINT RightArm
			{
				OFFSET -3.136600 1.374050 -0.404650 
				CHANNELS 3 Zrotation Yrotation Xrotation
				JOINT RightForeArm
				{
					OFFSET -5.241900 -0.000000 -0.000000 
					CHANNELS 3 Zrotation Yrotation Xrotation
					JOINT RightHand
					{
						OFFSET -3.444170 -0.000000 -0.000000 
						CHANNELS 3 Zrotation Yrotation Xrotation
						JOINT RightHandIndex1
						{
							OFFSET -0.622530 -0.000000 -0.000000 
							CHANNELS 3 Zrotation Yrotation Xrotation
							End Site
							{
								OFFSET 0.000000 0.000000 0.000000 
							}
						}
					}
				}
			}
		}
	}
}
MOTION
Frames: 10
Frame Time: 0.041667
9.701650 17.844250 50.037312 -178.028639 -5.330103 177.024280 -17.607915 -25.909450 0.530638 -2.429809 8.243525 23.494166 -4.090395 13.096155 -4.225849 2.865600 -10.474200 -30.526500 24.837686 17.129245 1.383978 2.234364 -7.814913 25.062078 6.600958 -24.620754 -21.054771 -0.733000 -5.470000 15.254000 1.864415 1.207454 3.532471 -5.896411 -0.089300 -12.310127 1.839501 20.526646 17.524875 -1.539700 10.826300 7.722700 -88.542174 7.293905 36.744057 23.608849 -23.585010 -6.549206 1.738760 0.972354 13.266782 -7.125000 0.000000 0.000000 88.565181 -9.153183 45.922385 -22.167484 25.682204 -6.817093 1.023684 0.752121 6.977687 7.125000 0.000000 0.000000 
9.705074 17.854758 50.032590 -177.959203 -5.062252 177.479461 -17.354079 -25.902840 0.084110 -2.430045 8.254933 23.488125 -4.092489 13.094518 -4.268237 2.758900 -10.294200 -29.934800 24.749033 17.307008 1.019634 2.282734 -7.783580 24.840217 6.739682 -24.909459 -20.884042 -0.728800 -5.454700 15.210100 2.102575 1.405124 3.231400 -5.807764 0.008388 -12.135283 1.606354 20.489301 17.762778 -1.583600 10.794800 7.868300 -88.626365 7.551873 36.859420 23.564882 -23.500124 -6.510048 1.712776 0.984216 13.915096 -7.125000 0.000000 0.000000 88.443921 -9.291205 46.275053 -22.221271 25.728029 -6.832467 1.044630 0.744808 6.422624 7.125000 0.000000 0.000000 
9.706963 17.866564 50.027041 -177.785975 -4.768959 178.010778 -16.944566 -25.912153 -0.343339 -2.465491 8.202587 23.283207 -4.258320 13.457604 -4.204227 2.763700 -10.302300 -29.961300 24.769921 17.587801 0.563923 2.307609 -7.804128 24.734677 6.784673 -24.935637 -20.599565 -0.662500 -5.205600 14.495800 2.276560 1.614370 2.888769 -5.833713 0.094988 -11.898380 1.531315 20.488407 17.850663 -1.596200 10.791300 7.922400 -88.676004 7.751294 36.858126 23.618167 -23.527793 -6.512932 1.688024 0.985285 14.122272 -7.125000 0.000000 0.000000 88.380220 -9.366169 46.375771 -22.234436 25.728368 -6.833130 1.051325 0.739678 6.426123 7.125000 0.000000 0.000000 
9.715110 17.878016 50.020783 -177.947510 -4.657554 178.426777 -16.893477 -25.862185 -0.644221 -2.504425 8.147009 23.084152 -4.302942 13.555971 -4.105718 2.743900 -10.268500 -29.850700 24.492180 17.837597 0.226264 2.322127 -7.813937 24.659916 6.833126 -24.975463 -20.443757 -0.656400 -5.182000 14.428400 2.244694 1.715995 2.699160 -5.680684 0.167489 -11.685980 1.477152 20.483614 17.854322 -1.605700 10.783500 7.937400 -88.697859 7.869402 36.752649 23.744667 -23.645084 -6.553494 1.679958 0.967913 14.183970 -7.125000 0.000000 0.000000 88.380651 -9.386891 46.441804 -22.214160 25.701455 -6.826634 1.055807 0.738850 6.330463 7.125000 0.000000 0.000000 
9.724319 17.896080 50.010157 -178.204784 -4.279109 179.050306 -16.873316 -25.748656 -1.092224 -2.551682 8.092553 22.872353 -4.377635 13.731148 -4.141484 2.685400 -10.167500 -29.520700 24.013989 18.131149 -0.346821 2.329128 -7.839871 24.570302 6.896270 -24.934928 -19.982922 -0.660700 -5.198800 14.476500 2.139874 1.933225 2.325432 -5.496490 0.299164 -11.402830 1.358989 20.483600 17.773916 -1.669400 10.781700 7.915800 -88.702786 7.955549 36.541869 23.808773 -23.708389 -6.583304 1.703808 0.945509 13.950268 -7.125000 0.000000 0.000000 88.451766 -9.508649 46.444531 -22.192671 25.667633 -6.807309 1.058692 0.737833 6.400700 7.125000 0.000000 0.000000 
9.734000 17.913436 50.003782 -178.309250 -3.887080 179.694705 -16.674061 -25.659666 -1.610598 -2.595060 8.038969 22.658060 -4.450111 13.891614 -4.139191 2.570100 -9.964200 -28.860900 23.696075 18.430742 -0.970378 2.336128 -7.882679 24.510704 6.913670 -24.822143 -19.581790 -0.648800 -5.152700 14.344700 2.069015 2.201947 1.802009 -5.407970 0.430843 -11.265616 1.337924 20.462546 17.761132 -1.690300 10.776000 7.909000 -88.673993 8.006558 36.332517 23.925490 -23.846880 -6.641155 1.770796 0.874819 12.990409 -7.125000 0.000000 0.000000 88.531034 -9.709621 46.275233 -22.204307 25.664504 -6.783749 1.056910 0.735100 6.811411 7.125000 0.000000 0.000000 
9.737896 17.916978 50.005317 -178.262361 -3.756682 179.890581 -16.509923 -25.637399 -1.788070 -2.615190 8.003440 22.538940 -4.448446 13.878051 -4.056761 2.484400 -9.809500 -28.361900 23.677345 18.523933 -1.189984 2.336514 -7.902226 24.502182 6.850615 -24.596081 -19.379839 -0.643700 -5.132600 14.287000 2.044909 2.341789 1.571257 -5.446091 0.487716 -11.297809 1.387113 20.449831 17.673102 -1.691700 10.774800 7.861800 -88.657580 8.109114 36.171269 23.852171 -23.764077 -6.605869 1.773340 0.882628 13.232111 -7.125000 0.000000 0.000000 88.601740 -9.843010 46.153619 -22.237340 25.696567 -6.786781 1.052279 0.735670 7.033440 7.125000 0.000000 0.000000 
9.739903 17.911547 50.006025 -178.263879 -3.841235 179.714162 -16.562949 -25.574760 -1.667590 -2.611717 8.001451 22.546126 -4.430538 13.837402 -3.954786 2.576200 -9.975100 -28.896100 23.748182 18.443049 -1.014514 2.333416 -7.883615 24.494590 6.845285 -24.574849 -19.332990 -0.638400 -5.112000 14.228400 1.983960 2.353892 1.698126 -5.487789 0.496444 -11.353682 1.491354 20.443791 17.545089 -1.671900 10.776800 7.792700 -88.640204 8.151807 36.077016 23.749466 -23.645895 -6.561232 1.729841 0.943641 13.676236 -7.125000 0.000000 0.000000 88.698598 -9.811915 46.015458 -22.205503 25.661921 -6.771860 1.051915 0.736259 7.146549 7.125000 0.000000 0.000000 
9.739077 17.913790 50.010039 -178.215206 -3.682577 179.724605 -16.517895 -25.482332 -1.742595 -2.603208 8.020247 22.589321 -4.487482 13.969260 -3.972993 2.637200 -10.083200 -29.246500 23.746839 18.354196 -1.090148 2.331783 -7.881968 24.467150 6.893033 -24.645415 -19.140601 -0.621200 -5.043800 14.033700 1.991145 2.488164 1.637278 -5.564530 0.550159 -11.415124 1.550994 20.435134 17.521903 -1.656600 10.776200 7.769800 -88.655907 8.143906 35.865205 23.806689 -23.719829 -6.588151 1.754408 0.917469 13.027651 -7.125000 0.000000 0.000000 88.721808 -9.814864 45.995325 -22.175802 25.628892 -6.759477 1.050313 0.739349 7.086422 7.125000 0.000000 0.000000 
9.745806 17.915915 50.003900 -178.114614 -4.285529 179.668970 -16.367784 -25.537207 -1.751432 -2.586915 8.018258 22.605279 -4.284462 13.487408 -3.641679 2.612000 -10.038800 -29.102400 23.971596 18.242802 -0.920351 2.358762 -7.860568 24.466464 6.881239 -24.846769 -19.832204 -0.685300 -5.292700 14.745400 2.107559 2.279451 1.736100 -5.514914 0.460942 -11.317430 1.794930 20.488042 17.390806 -1.558900 10.800700 7.658900 -88.708732 8.122469 35.831957 23.622538 -23.484473 -6.482250 1.723160 0.950984 13.920533 -7.125000 0.000000 0.000000 88.609761 -9.810697 46.093587 -22.229194 25.693201 -6.803660 1.045893 0.740870 6.942825 7.125000 0.000000 0.000000 
